STARTFONT 2.1
COMMENT
COMMENT  This font is copyrighted by its author, who reserves all rights under
COMMENT  national and international copyright laws.
COMMENT
COMMENT  Produced with bdfedit, a tcl/tk font editing program
COMMENT    written by Thomas A. Fine
COMMENT    Email to my last name at head.cfa.harvard.edu
COMMENT    http://hea-www.harvard.edu/~fine/
FONT m2icon_7
SIZE 7 72 72
FONTBOUNDINGBOX 12 8 0 -1
STARTPROPERTIES 11
FOUNDRY "Fine"
FAMILY_NAME ""
WEIGHT_NAME "Medium"
SLANT "R"
SETWIDTH_NAME "Normal"
SPACING "c"
CHARSET_REGISTRY "ISO-8859"
CHARSET_ENCODING "1"
COPYRIGHT "public domain"
FONT_ASCENT  7
FONT_DESCENT 1
ENDPROPERTIES
CHARS 24
STARTCHAR C101
ENCODING 65
SWIDTH 1428 0
DWIDTH 10 0
BBX 9 7 0 0
BITMAP
0f00
ff80
8080
8080
8080
8080
ff80
ENDCHAR
STARTCHAR C102
ENCODING 66
SWIDTH 857 0
DWIDTH 6 0
BBX 5 7 0 0
BITMAP
38
68
e8
88
88
88
f8
ENDCHAR
STARTCHAR C103
ENCODING 67
SWIDTH 857 0
DWIDTH 6 0
BBX 5 4 0 1
BITMAP
d8
70
70
d8
ENDCHAR
STARTCHAR C104
ENCODING 68
SWIDTH 1285 0
DWIDTH 9 0
BBX 8 6 0 0
BITMAP
03
06
0c
d8
70
20
ENDCHAR
STARTCHAR C105
ENCODING 69
SWIDTH 1000 0
DWIDTH 7 0
BBX 6 6 0 0
BITMAP
fc
84
84
84
84
fc
ENDCHAR
STARTCHAR C106
ENCODING 70
SWIDTH 1000 0
DWIDTH 7 0
BBX 6 6 0 0
BITMAP
fc
84
b4
b4
84
fc
ENDCHAR
STARTCHAR C107
ENCODING 71
SWIDTH 1000 0
DWIDTH 7 0
BBX 6 6 0 0
BITMAP
fc
fc
fc
fc
fc
fc
ENDCHAR
STARTCHAR C110
ENCODING 72
SWIDTH 1285 0
DWIDTH 9 0
BBX 7 7 0 0
BITMAP
fe
82
82
82
82
82
fe
ENDCHAR
STARTCHAR C111
ENCODING 73
SWIDTH 1285 0
DWIDTH 9 0
BBX 7 7 0 0
BITMAP
fe
82
ba
ba
ba
82
fe
ENDCHAR
STARTCHAR C112
ENCODING 74
SWIDTH 1285 0
DWIDTH 9 0
BBX 7 7 0 0
BITMAP
fe
fe
fe
fe
fe
fe
fe
ENDCHAR
STARTCHAR C113
ENCODING 75
SWIDTH 1000 0
DWIDTH 7 0
BBX 6 6 0 0
BITMAP
f8
8c
8c
8c
fc
7c
ENDCHAR
STARTCHAR C114
ENCODING 76
SWIDTH 1000 0
DWIDTH 7 0
BBX 6 6 0 0
BITMAP
f8
8c
ac
8c
fc
7c
ENDCHAR
STARTCHAR C115
ENCODING 77
SWIDTH 1142 0
DWIDTH 8 0
BBX 6 6 0 0
BITMAP
f8
fc
fc
fc
fc
7c
ENDCHAR
STARTCHAR C116
ENCODING 78
SWIDTH 1285 0
DWIDTH 9 0
BBX 7 7 0 0
BITMAP
fc
86
86
86
86
fe
7e
ENDCHAR
STARTCHAR C117
ENCODING 79
SWIDTH 1285 0
DWIDTH 9 0
BBX 7 7 0 0
BITMAP
fc
86
b6
b6
86
fe
7e
ENDCHAR
STARTCHAR C120
ENCODING 80
SWIDTH 1285 0
DWIDTH 9 0
BBX 7 7 0 0
BITMAP
fc
fe
fe
fe
fe
fe
7e
ENDCHAR
STARTCHAR C121
ENCODING 81
SWIDTH 1000 0
DWIDTH 7 0
BBX 6 6 0 0
BITMAP
78
cc
84
84
cc
78
ENDCHAR
STARTCHAR C122
ENCODING 82
SWIDTH 1000 0
DWIDTH 7 0
BBX 6 6 0 0
BITMAP
78
cc
b4
b4
cc
78
ENDCHAR
STARTCHAR C123
ENCODING 83
SWIDTH 1000 0
DWIDTH 7 0
BBX 6 6 0 0
BITMAP
78
fc
fc
fc
fc
78
ENDCHAR
STARTCHAR C141
ENCODING 97
SWIDTH 1285 0
DWIDTH 9 0
BBX 8 7 0 0
BITMAP
10
30
5f
81
5f
30
10
ENDCHAR
STARTCHAR C142
ENCODING 98
SWIDTH 1142 0
DWIDTH 8 0
BBX 7 7 0 0
BITMAP
10
28
44
ee
28
28
38
ENDCHAR
STARTCHAR C146
ENCODING 102
SWIDTH 1857 0
DWIDTH 13 0
BBX 12 7 0 0
BITMAP
0f00
ff80
8080
9ff0
a020
c040
ff80
ENDCHAR
STARTCHAR C147
ENCODING 103
SWIDTH 285 0
DWIDTH 2 0
BBX 1 8 0 -1
BITMAP
80
80
80
80
80
80
80
80
ENDCHAR
STARTCHAR C150
ENCODING 104
SWIDTH 1714 0
DWIDTH 12 0
BBX 7 7 0 0
BITMAP
10
00
10
ba
10
00
10
ENDCHAR
ENDFONT
